<?xml version="1.0" encoding="utf-8"?>
<!-- Generator: Adobe Illustrator 24.0.0, SVG Export Plug-In . SVG Version: 6.00 Build 0)  -->
<svg version="1.1" id="Logo" xmlns="http://www.w3.org/2000/svg" xmlns:xlink="http://www.w3.org/1999/xlink" x="0px" y="0px"
	 viewBox="0 0 375 334" style="enable-background:new 0 0 375 334;" xml:space="preserve">
<style type="text/css">
	.st0{fill:#1C1C1C;stroke:url(#backround_1_);stroke-width:10;stroke-miterlimit:10;}
	.st1{fill:#FFFFFF;}
	.st2{fill:none;stroke:#45D800;stroke-width:9;stroke-miterlimit:10;}
	.st3{fill:#2E83FF;}
	.st4{fill:#595959;}
	.st5{fill:url(#SVGID_1_);}
	.st6{fill:url(#SVGID_2_);}
	.st7{fill:#ED1E79;}
	.st8{font-family:'CascadiaCode';}
	.st9{font-size:28.7478px;}
	.st10{fill:#FBB03B;}
	.st11{font-size:21.0312px;}
</style>
<g id="lvl">
	<linearGradient id="backround_1_" gradientUnits="userSpaceOnUse" x1="76.3437" y1="306.7353" x2="296.4861" y2="86.5928">
		<stop  offset="0.2337" style="stop-color:#0071BC"/>
		<stop  offset="1" style="stop-color:#FF00FF"/>
	</linearGradient>
	<path id="backround" class="st0" d="M327.41,262.15H45.42c-8.79,0-15.92-7.13-15.92-15.92V147.1c0-8.79,7.13-15.92,15.92-15.92
		h281.99c8.79,0,15.92,7.13,15.92,15.92v99.13C343.33,255.02,336.2,262.15,327.41,262.15z"/>
	<rect id="cursor" x="256.68" y="224.02" class="st1" width="47.91" height="14.98"/>
	<g>
		<path class="st1" d="M161.97,222.49c-1.89,0.52-3.72,0.9-5.5,1.13s-3.68,0.35-5.71,0.35c-2.93,0-5.3-0.52-7.09-1.56
			c-1.8-1.04-3.12-2.65-3.97-4.82c-0.85-2.17-1.28-5.01-1.28-8.51v-32.76h-11.06v-6.24h18.58v38.65c0,2.13,0.2,3.79,0.58,4.98
			c0.39,1.19,1.13,2.08,2.23,2.66c1.1,0.58,2.71,0.87,4.84,0.87c1.04,0,2.16-0.11,3.35-0.32c1.19-0.21,2.58-0.56,4.17-1.03
			L161.97,222.49z"/>
		<path class="st1" d="M169.63,185.68h8.01l10.28,31.91h0.64l9.93-31.91h8.01l-13.26,38.29h-10L169.63,185.68z"/>
		<path class="st1" d="M247.07,222.49c-1.89,0.52-3.72,0.9-5.5,1.13c-1.77,0.24-3.68,0.35-5.71,0.35c-2.93,0-5.3-0.52-7.09-1.56
			c-1.8-1.04-3.12-2.65-3.97-4.82c-0.85-2.17-1.28-5.01-1.28-8.51v-32.76h-11.06v-6.24h18.58v38.65c0,2.13,0.19,3.79,0.58,4.98
			c0.39,1.19,1.13,2.08,2.23,2.66c1.1,0.58,2.71,0.87,4.84,0.87c1.04,0,2.16-0.11,3.35-0.32c1.19-0.21,2.58-0.56,4.17-1.03
			L247.07,222.49z"/>
	</g>
	<polyline id="arrow" class="st2" points="72.23,177 99,200.51 72.23,224.02 	"/>
</g>
<g id="Title">
	<g>
		<path class="st3" d="M86.77,304.97v1.71l-13.39,7.52v-3.23c2.84-1.26,4.82-2.1,5.92-2.52c1.1-0.42,1.85-0.64,2.25-0.68v-0.62
			H60.38v-2.64h21.17v-0.62c-0.5-0.04-1.31-0.25-2.43-0.65c-1.12-0.39-3.04-1.2-5.74-2.41v-3.37L86.77,304.97z"/>
		<path class="st4" d="M122.42,313.11v2.67h-13.19v-19.93h2.81v17.27H122.42z"/>
		<path class="st4" d="M140.08,313.39v2.39l-4.77,0.14l-0.14-3.29h-0.29c-0.1,1.12-0.58,1.97-1.42,2.55
			c-0.85,0.58-1.98,0.87-3.39,0.87c-1.55,0-2.76-0.37-3.61-1.12s-1.28-1.8-1.28-3.18c0-1.57,0.57-2.78,1.72-3.62
			c1.15-0.84,2.77-1.26,4.88-1.26c1.14,0,2.12,0.12,2.95,0.35v-0.8c0-1.01-0.34-1.76-1.03-2.26c-0.69-0.5-1.73-0.78-3.12-0.86
			l-3.57-0.17l0.28-2.53l3,0.11c2.45,0.09,4.28,0.65,5.47,1.67c1.2,1.02,1.8,2.51,1.8,4.48v6.2L140.08,313.39z M132.8,313.21
			c0.63-0.31,1.11-0.71,1.43-1.21c0.32-0.5,0.48-1.01,0.48-1.56v-0.9c-0.47-0.12-0.93-0.2-1.4-0.23s-1.05-0.05-1.75-0.05
			c-1.18,0-2.07,0.19-2.68,0.56c-0.61,0.38-0.91,0.93-0.91,1.66c0,0.72,0.22,1.27,0.65,1.63c0.43,0.37,1.07,0.55,1.91,0.55
			C131.41,313.67,132.17,313.52,132.8,313.21z"/>
		<path class="st4" d="M154.96,301.2c0.64,0.39,1.11,0.99,1.42,1.8c0.3,0.81,0.46,1.88,0.46,3.2h-2.95c0-1.08-0.16-1.86-0.48-2.34
			c-0.32-0.48-0.84-0.72-1.57-0.72c-1.24,0-2.18,0.53-2.81,1.6c-0.63,1.07-0.95,2.61-0.95,4.63v3.93h3.65v2.47h-9.94v-2.47h3.31
			v-9.94h-2.75v-2.47h5.17l0.51,3.82h0.34c0.08-1.38,0.47-2.4,1.14-3.08c0.68-0.68,1.66-1.02,2.95-1.02
			C153.49,300.62,154.32,300.81,154.96,301.2z"/>
		<path class="st4" d="M173.77,313.39v2.39l-4.77,0.14l-0.14-3.29h-0.29c-0.1,1.12-0.58,1.97-1.42,2.55
			c-0.85,0.58-1.98,0.87-3.39,0.87c-1.55,0-2.76-0.37-3.61-1.12s-1.28-1.8-1.28-3.18c0-1.57,0.57-2.78,1.72-3.62
			c1.15-0.84,2.77-1.26,4.88-1.26c1.14,0,2.12,0.12,2.95,0.35v-0.8c0-1.01-0.34-1.76-1.03-2.26c-0.69-0.5-1.73-0.78-3.12-0.86
			l-3.57-0.17l0.28-2.53l3,0.11c2.45,0.09,4.28,0.65,5.47,1.67c1.2,1.02,1.8,2.51,1.8,4.48v6.2L173.77,313.39z M166.49,313.21
			c0.63-0.31,1.11-0.71,1.43-1.21c0.32-0.5,0.48-1.01,0.48-1.56v-0.9c-0.47-0.12-0.93-0.2-1.4-0.23s-1.05-0.05-1.75-0.05
			c-1.18,0-2.07,0.19-2.68,0.56c-0.61,0.38-0.91,0.93-0.91,1.66c0,0.72,0.22,1.27,0.65,1.63c0.43,0.37,1.07,0.55,1.91,0.55
			C165.1,313.67,165.86,313.52,166.49,313.21z"/>
		<path class="st4" d="M175.48,300.9h3.17l4.07,12.63h0.25l3.93-12.63h3.17l-5.25,15.16h-3.96L175.48,300.9z"/>
		<path class="st4" d="M206.05,309.66H196c0.26,1.24,0.85,2.18,1.77,2.82s2.12,0.97,3.62,0.97c1.15,0,2.37-0.13,3.65-0.39l0.36,2.61
			c-1.38,0.26-2.83,0.39-4.35,0.39c-1.69,0-3.13-0.3-4.32-0.9c-1.18-0.6-2.08-1.48-2.7-2.63c-0.62-1.16-0.93-2.56-0.93-4.22
			c0-1.61,0.26-2.99,0.79-4.14c0.52-1.15,1.29-2.03,2.29-2.64s2.22-0.91,3.63-0.91c2.02,0,3.58,0.61,4.67,1.84
			c1.09,1.23,1.64,2.99,1.64,5.29C206.14,308.43,206.11,309.07,206.05,309.66z M203.44,307.38c0-1.33-0.32-2.35-0.95-3.07
			s-1.51-1.08-2.65-1.08c-1.15,0-2.07,0.36-2.75,1.08c-0.68,0.72-1.09,1.75-1.21,3.07H203.44z"/>
		<path class="st4" d="M222.98,315.47c-0.75,0.21-1.47,0.36-2.18,0.45c-0.7,0.09-1.46,0.14-2.26,0.14c-1.16,0-2.1-0.21-2.81-0.62
			s-1.24-1.05-1.57-1.91c-0.34-0.86-0.5-1.98-0.5-3.37v-12.97h-4.38v-2.47h7.36v15.3c0,0.84,0.08,1.5,0.23,1.97s0.45,0.82,0.88,1.05
			c0.43,0.23,1.07,0.34,1.92,0.34c0.41,0,0.85-0.04,1.33-0.13s1.02-0.22,1.65-0.41L222.98,315.47z"/>
		<path class="st4" d="M243.7,309.1v-13.25h2.81v13.25c0,1.35,0.29,2.35,0.88,3.02c0.59,0.67,1.51,1,2.76,1
			c1.21,0,2.12-0.34,2.73-1.01s0.92-1.67,0.92-3v-13.25h2.81v13.25c0,2.22-0.55,3.89-1.65,5c-1.1,1.12-2.72,1.68-4.86,1.68
			C245.83,315.78,243.7,313.55,243.7,309.1z"/>
		<path class="st4" d="M271.34,301.54c0.89,0.61,1.57,1.51,2.04,2.69c0.46,1.18,0.7,2.6,0.7,4.25c0,1.62-0.23,2.99-0.7,4.13
			c-0.46,1.13-1.14,1.99-2.02,2.58c-0.88,0.58-1.95,0.88-3.21,0.88c-1.14,0-2.06-0.22-2.77-0.66c-0.7-0.44-1.1-1.08-1.19-1.92h-0.28
			v8.76h-2.98V300.9h2.7l0.24,2.69h0.32c0.13-1,0.52-1.75,1.17-2.24s1.57-0.74,2.76-0.74C269.38,300.62,270.45,300.92,271.34,301.54
			z M270.26,312.25c0.58-0.85,0.87-2.11,0.87-3.78c0-1.7-0.3-3.02-0.89-3.94c-0.59-0.93-1.44-1.39-2.53-1.39
			c-2.53,0-3.79,1.42-3.79,4.27V311c0,1.68,1.25,2.53,3.76,2.53C268.82,313.53,269.68,313.11,270.26,312.25z"/>
		<path class="st3" d="M300.86,307.16v0.62c0.25,0.02,0.64,0.12,1.17,0.32c0.53,0.19,1.6,0.61,3.22,1.26l3.78,1.49v3.37l-13.39-7.52
			v-1.71l13.39-7.5v3.37c-2.77,1.21-4.71,2.01-5.83,2.41c-1.11,0.4-1.9,0.62-2.34,0.65v0.62h21.17v2.64H300.86z"/>
	</g>
</g>
<g id="Rocket">
	
		<linearGradient id="SVGID_1_" gradientUnits="userSpaceOnUse" x1="233.8925" y1="172.3245" x2="384.869" y2="172.3245" gradientTransform="matrix(0.993 -0.1359 0.1494 1.0046 -63.5133 53.3984)">
		<stop  offset="0" style="stop-color:#ED1E79"/>
		<stop  offset="0.9988" style="stop-color:#FFFF00"/>
	</linearGradient>
	<path class="st5" d="M181.19,105.34c0,0,178.29,108.26,165.45,153.53c-7,24.66-36.91,19.42-66.63,8.12h-1c0,0,53,28,72.54-3.34
		c12.52-20.08-7.91-45.09-27.95-66.58C274.42,144.34,189.89,93.69,189.89,93.69l36.94,32.79L181.19,105.34z"/>
	
		<linearGradient id="SVGID_2_" gradientUnits="userSpaceOnUse" x1="272.1764" y1="43.9846" x2="132.4194" y2="43.9846" gradientTransform="matrix(0.993 -0.1359 0.1494 1.0046 -63.5133 53.3984)">
		<stop  offset="0" style="stop-color:#ED1E79"/>
		<stop  offset="0.9988" style="stop-color:#FFFF00"/>
	</linearGradient>
	<path class="st6" d="M202.85,110.2l-37.96-21.58l14.05,10.38l-5.66,8.71l-13.92-4.11l13.06,6.97l14.6,21.96l-34.54-19.53l1.6-11.99
		c-37.19-14.09-51.89-55.8-51.89-55.8c-5.86-0.69-5.06-6.68-5.06-6.68L68.39,16.54c-0.21,1.4-4.73-0.29-3.14-3
		c2.08-3.54,4.64,1.79,3.42,2.05l30.25,20.34c5.15-3.67,7.43,2.19,7.43,2.19c59.43,4.04,70.73,30.21,70.73,30.21l10.94-6.12
		l29.45,26.34l-24.71-5.21l-11.91-10.78c3.14,3,7.91,10.64,7.91,10.64l-4.45,8.03l-15.84-7.79L202.85,110.2z M156.04,70.69
		c0.82-5.98-3.25-11.41-9.1-12.12c-5.85-0.71-11.25,3.56-12.07,9.55c-0.82,5.98,3.25,11.41,9.1,12.12
		C149.81,80.95,155.22,76.67,156.04,70.69z"/>
	<text transform="matrix(1 0 0 1 62.083 66.7319)" class="st7 st8 st9">*</text>
	<text transform="matrix(1 0 0 1 224.2207 97.9849)" class="st10 st8 st11">*</text>
</g>
</svg>
